Coordinates
version=1
nRows=17
nColumns=40
inDegrees=yes

Units are S.I. units (second, meters, Newtons, ...)
If the header above contains a line with 'inDegrees', this indicates whether rotational values are in degrees (yes) or radians (no).

endheader
time	pelvis_tilt	pelvis_list	pelvis_rotation	pelvis_tx	pelvis_ty	pelvis_tz	hip_flexion_r	hip_adduction_r	hip_rotation_r	knee_angle_r	knee_angle_r_beta	ankle_angle_r	subtalar_angle_r	mtp_angle_r	hip_flexion_l	hip_adduction_l	hip_rotation_l	knee_angle_l	knee_angle_l_beta	ankle_angle_l	subtalar_angle_l	mtp_angle_l	lumbar_extension	lumbar_bending	lumbar_rotation	arm_flex_r	arm_add_r	arm_rot_r	elbow_flex_r	pro_sup_r	wrist_flex_r	wrist_dev_r	arm_flex_l	arm_add_l	arm_rot_l	elbow_flex_l	pro_sup_l	wrist_flex_l	wrist_dev_l
      4.24500000	    -34.23239479	     -1.58343394	     -1.35676081	     -0.33411758	      0.65962974	     -0.88400348	     88.03324423	    -15.90772717	     -3.95900274	     90.11827611	      1.57286063	     31.88511295	      0.00000000	      0.00000000	     89.56456026	    -25.89172351	     -2.29877856	     90.69786396	      1.58297635	     32.74352487	      0.00000000	      0.00000000	    -14.14851112	      1.09234737	     -3.25154041	    -23.78789731	    -35.29662502	     12.02371792	    111.55715983	     87.20271660	      0.00000000	      0.00000000	    -34.89249331	    -38.78274179	      9.87337320	    108.99136168	     88.00071165	      0.00000000	      0.00000000
      4.25000000	    -34.06296356	     -1.65855317	     -1.21114007	     -0.33148035	      0.66459564	     -0.88426805	     87.17251436	    -15.99375870	     -4.20874770	     89.41512295	      1.56058830	     31.53341304	      0.00000000	      0.00000000	     88.64338908	    -25.66713481	     -2.48891442	     89.86559631	      1.56845054	     32.45391473	      0.00000000	      0.00000000	    -13.37178089	      1.27602315	     -3.44168613	    -23.73891375	    -35.43832840	     12.17878232	    111.32449202	     87.20143220	      0.00000000	      0.00000000	    -34.88221328	    -38.90881276	     10.05868758	    108.99353170	     88.00257209	      0.00000000	      0.00000000
      4.25500000	    -32.70882674	     -1.68693950	     -0.81076176	     -0.32624256	      0.67205146	     -0.88527811	     84.80256732	    -16.64365349	     -4.73922345	     88.78584489	      1.54960532	     31.20992436	      0.00000000	      0.00000000	     86.20111770	    -25.43087509	     -3.09299242	     89.10273330	      1.55513607	     32.27335266	      0.00000000	      0.00000000	    -13.81570825	      1.47217514	     -3.89919123	    -23.39542067	    -35.59749372	     12.59338991	    110.61268620	     87.18344284	      0.00000000	      0.00000000	    -34.54080033	    -38.96530803	     10.51277864	    108.54741954	     88.00166463	      0.00000000	      0.00000000
      4.26000000	    -32.45437951	     -1.56911536	     -1.10475662	     -0.32367202	      0.67776123	     -0.88449789	     83.96984157	    -16.14452827	     -4.64293485	     87.98007226	      1.53554194	     30.61588451	      0.00000000	      0.00000000	     85.02187739	    -25.73054836	     -3.60917672	     88.11652448	      1.53792348	     32.08026749	      0.00000000	      0.00000000	    -13.12856423	      1.29475646	     -3.71347652	    -23.35075205	    -35.72123835	     12.80669460	    110.51667909	     87.18254623	      0.00000000	      0.00000000	    -34.62272646	    -39.05515848	     10.48551200	    108.63739285	     87.99033560	      0.00000000	      0.00000000
      4.26500000	    -31.78872429	     -1.68526532	     -1.97084255	     -0.31979707	      0.68426232	     -0.88199678	     82.48663199	    -15.00458807	     -4.83189178	     87.08845470	      1.51998027	     29.86962880	      0.00000000	      0.00000000	     83.40731308	    -27.05230504	     -4.22825798	     87.39952631	      1.52540950	     31.84226688	      0.00000000	      0.00000000	    -12.83683396	      1.17775844	     -2.95792576	    -23.27045871	    -35.85242294	     13.07523075	    110.29044954	     87.17889003	      0.00000000	      0.00000000	    -34.97864647	    -39.20853430	     10.33413601	    108.68807751	     87.98626900	      0.00000000	      0.00000000
      4.27000000	    -30.80439491	     -1.77016981	     -1.23021354	     -0.31549334	      0.69169977	     -0.88393268	     80.54258440	    -15.92889047	     -5.37692984	     86.37077327	      1.50745437	     29.28921312	      0.00000000	      0.00000000	     81.43275950	    -26.25702056	     -4.63503504	     86.38939718	      1.50777942	     31.38656307	      0.00000000	      0.00000000	    -12.90940679	      1.53329408	     -3.70985818	    -23.35733267	    -36.20725711	     13.10998143	    110.36685886	     87.18027017	      0.00000000	      0.00000000	    -34.99145576	    -39.07272354	     10.38763298	    108.61678367	     87.98847351	      0.00000000	      0.00000000
      4.27500000	    -30.05757399	     -1.71729199	     -1.47078301	     -0.31176749	      0.69902991	     -0.88336503	     78.95940586	    -15.63744720	     -5.53633758	     85.40358203	      1.49057370	     28.55761637	      0.00000000	      0.00000000	     79.55987718	    -26.58548464	     -5.33903193	     85.40441174	      1.49058818	     30.91420568	      0.00000000	      0.00000000	    -12.72253962	      1.45388053	     -3.56862178	    -23.40467768	    -36.55438714	     13.22128632	    110.57334291	     87.19312439	      0.00000000	      0.00000000	    -35.31334584	    -39.15564793	     10.16761896	    108.84381207	     87.98663442	      0.00000000	      0.00000000
      4.28000000	    -29.12456967	     -1.77214611	     -1.34826191	     -0.30722000	      0.70692682	     -0.88368125	     77.01290677	    -15.79050814	     -5.97238418	     84.44640495	      1.47386781	     27.90146358	      0.00000000	      0.00000000	     77.49781720	    -26.57876639	     -5.96813800	     84.32497581	      1.47174847	     30.46283007	      0.00000000	      0.00000000	    -12.70793748	      1.57765040	     -3.75334394	    -23.59357959	    -36.90331760	     13.22618787	    110.88618408	     87.20200556	      0.00000000	      0.00000000	    -35.59145046	    -39.04545980	      9.91776332	    109.00956342	     87.98555349	      0.00000000	      0.00000000
      4.28500000	    -28.38119401	     -1.82800377	     -1.33520727	     -0.30346494	      0.71479544	     -0.88369334	     75.29353259	    -15.73583750	     -6.30026571	     83.35437250	      1.45480825	     27.15145875	      0.00000000	      0.00000000	     75.64860746	    -26.59887956	     -6.50407188	     83.14638159	      1.45117812	     29.86696169	      0.00000000	      0.00000000	    -12.52522197	      1.67683106	     -3.82221915	    -23.80240422	    -37.35238897	     13.06843227	    111.49862309	     87.20937662	      0.00000000	      0.00000000	    -36.09792546	    -39.03397123	      9.48220577	    109.44638651	     87.98484517	      0.00000000	      0.00000000
      4.29000000	    -27.66305948	     -1.39541995	     -2.36743181	     -0.29979810	      0.72255218	     -0.88129960	     74.00743994	    -14.69191570	     -5.78697357	     82.26875309	      1.43586061	     26.14792055	      0.00000000	      0.00000000	     73.40317190	    -27.74465979	     -8.14334084	     82.12356721	      1.43332664	     29.24471652	      0.00000000	      0.00000000	    -12.33895264	      0.94644818	     -3.06121568	    -23.98369291	    -37.76921979	     13.34512342	    112.01362996	     87.22222286	      0.00000000	      0.00000000	    -37.14448360	    -39.11814629	      8.49525967	    110.18186957	     87.99148807	      0.00000000	      0.00000000
      4.29500000	    -26.86931489	     -1.53005508	     -2.21133256	     -0.29590738	      0.73112457	     -0.88170950	     72.11080180	    -14.78929569	     -6.27782617	     81.01408151	      1.41396246	     25.30786521	      0.00000000	      0.00000000	     71.48161645	    -27.55640326	     -8.59474949	     80.77019400	      1.40970582	     28.59057042	      0.00000000	      0.00000000	    -12.23495830	      1.17890257	     -3.33736602	    -24.14408772	    -38.40448637	     13.27115200	    112.79792056	     87.22758868	      0.00000000	      0.00000000	    -37.95002409	    -38.86739602	      7.70400988	    110.78117522	     87.99466972	      0.00000000	      0.00000000
      4.30000000	    -26.24539131	     -1.48993940	     -2.23871773	     -0.29208550	      0.73962299	     -0.88166215	     70.48313329	    -14.73101056	     -6.53973485	     79.73851067	      1.39169955	     24.37303310	      0.00000000	      0.00000000	     69.63076797	    -27.45495164	     -9.20833982	     79.39640213	      1.38572863	     27.64146224	      0.00000000	      0.00000000	    -11.92803055	      1.18176499	     -3.41177249	    -24.46173469	    -39.05337455	     13.16102360	    113.72966813	     87.25025510	      0.00000000	      0.00000000	    -38.82663200	    -38.76562476	      6.93524522	    111.46748988	     87.99492664	      0.00000000	      0.00000000
      4.30500000	    -25.22966883	     -1.60135725	     -2.56229927	     -0.28748214	      0.74907340	     -0.88091815	     68.30687053	    -14.31699816	     -6.90978307	     78.33552819	      1.36721289	     23.35091487	      0.00000000	      0.00000000	     67.22890819	    -27.84421769	     -9.99859767	     77.96544760	      1.36075376	     26.72836059	      0.00000000	      0.00000000	    -12.04716186	      1.25523285	     -3.20497546	    -24.69214973	    -39.64103191	     12.93284045	    114.75238085	     87.26096849	      0.00000000	      0.00000000	    -39.78797824	    -38.51396521	      5.99035835	    112.21553801	     87.99527345	      0.00000000	      0.00000000
      4.31000000	    -24.81179203	     -1.37671147	     -2.42701106	     -0.28413924	      0.75729756	     -0.88139495	     66.98127347	    -14.55803937	     -7.01260313	     77.00775691	      1.34403891	     22.40760169	      0.00000000	      0.00000000	     65.65614397	    -27.42976865	    -10.71145765	     76.61967499	      1.33726560	     25.65849729	      0.00000000	      0.00000000	    -11.48086739	      0.85389040	     -7.93040422	    -16.79235713	    -43.07564452	     21.30055996	    114.04473799	     87.21447506	      0.00000000	      0.00000000	    -47.13308482	    -33.45514027	     -1.54297091	    114.14043391	     88.06687392	      0.00000000	      0.00000000
      4.31500000	    -24.28796883	     -1.17377101	     -1.26745914	     -0.28110125	      0.76681222	     -0.88549229	     65.22850620	    -15.99120283	     -7.70913182	     75.43016544	      1.31650474	     21.27032534	      0.00000000	      0.00000000	     64.02046935	    -25.48603398	    -10.55813839	     74.69653016	      1.30370039	     24.48993377	      0.00000000	      0.00000000	    -11.15637116	      1.11563194	     -9.07412549	    -17.19269256	    -44.17669037	     20.68989730	    115.43745122	     87.17370580	      0.00000000	      0.00000000	    -47.61158874	    -33.09687522	     -1.97121926	    114.89504541	     88.07154939	      0.00000000	      0.00000000
      4.32000000	    -23.69348384	     -1.11462618	     -1.32969481	     -0.27735120	      0.77641544	     -0.88550050	     63.51297578	    -15.92940158	     -8.07216851	     73.82659112	      1.28851709	     19.82773222	      0.00000000	      0.00000000	     62.12090356	    -25.23959230	    -11.03077366	     73.06128356	      1.27515995	     23.37081889	      0.00000000	      0.00000000	    -10.88851525	      1.08353018	     -9.14633354	    -17.48669047	    -44.90805000	     20.12948318	    116.58370866	     87.15477757	      0.00000000	      0.00000000	    -48.87775172	    -32.73263294	     -3.06898041	    115.88139131	     88.07834991	      0.00000000	      0.00000000
      4.32500000	    -23.23456242	     -0.99498087	     -1.55178453	     -0.27378727	      0.78616749	     -0.88507976	     61.95206396	    -15.65220127	     -8.23272159	     72.07631448	      1.25796900	     18.56902366	      0.00000000	      0.00000000	     60.23691511	    -25.07562714	    -11.63229818	     71.19924624	      1.24266127	     22.02090197	      0.00000000	      0.00000000	    -10.46351995	      0.93585212	     -9.03351134	    -17.74857528	    -45.65185275	     19.75152140	    117.72253524	     87.18014205	      0.00000000	      0.00000000	    -50.07451764	    -32.42375158	     -4.07384429	    116.90926940	     88.08253044	      0.00000000	      0.00000000
